<mxfile host="app.diagrams.net" modified="2022-12-02T02:45:01.439Z" agent="5.0 (Windows NT 10.0; Win64; x64) AppleWebKit/537.36 (KHTML, like Gecko) Chrome/107.0.0.0 Safari/537.36" etag="zwDQWVDRsWkq8vnK2ME8" version="20.6.0" type="github">
  <diagram id="EjneijDu4RfCgKmYAjgn" name="第 1 页">
    <mxGraphModel dx="1422" dy="786" grid="1" gridSize="10" guides="1" tooltips="1" connect="1" arrows="1" fold="1" page="1" pageScale="1" pageWidth="827" pageHeight="1169" math="0" shadow="0">
      <root>
        <mxCell id="0" />
        <mxCell id="1" parent="0" />
        <mxCell id="2hzLlLim8qnXkPnjoGoZ-21" style="edgeStyle=orthogonalEdgeStyle;rounded=0;orthogonalLoop=1;jettySize=auto;html=1;labelBackgroundColor=#F1FAEE;strokeColor=#457B9D;fontColor=#1D3557;" parent="1" source="2hzLlLim8qnXkPnjoGoZ-1" target="2hzLlLim8qnXkPnjoGoZ-15" edge="1">
          <mxGeometry relative="1" as="geometry" />
        </mxCell>
        <mxCell id="2hzLlLim8qnXkPnjoGoZ-1" value="赢和数据仓库" style="ellipse;whiteSpace=wrap;html=1;fillColor=#A8DADC;strokeColor=#457B9D;fontColor=#1D3557;" parent="1" vertex="1">
          <mxGeometry x="340" y="270" width="120" height="80" as="geometry" />
        </mxCell>
        <mxCell id="2hzLlLim8qnXkPnjoGoZ-8" style="edgeStyle=orthogonalEdgeStyle;rounded=0;orthogonalLoop=1;jettySize=auto;html=1;labelBackgroundColor=#F1FAEE;strokeColor=#457B9D;fontColor=#1D3557;" parent="1" source="2hzLlLim8qnXkPnjoGoZ-2" target="2hzLlLim8qnXkPnjoGoZ-1" edge="1">
          <mxGeometry relative="1" as="geometry" />
        </mxCell>
        <mxCell id="2hzLlLim8qnXkPnjoGoZ-2" value="恒生ta" style="rounded=1;whiteSpace=wrap;html=1;fillColor=#A8DADC;strokeColor=#457B9D;fontColor=#1D3557;" parent="1" vertex="1">
          <mxGeometry x="274.5" y="160" width="251" height="60" as="geometry" />
        </mxCell>
        <mxCell id="2hzLlLim8qnXkPnjoGoZ-9" style="edgeStyle=orthogonalEdgeStyle;rounded=0;orthogonalLoop=1;jettySize=auto;html=1;entryX=0.05;entryY=0.375;entryDx=0;entryDy=0;entryPerimeter=0;labelBackgroundColor=#F1FAEE;strokeColor=#457B9D;fontColor=#1D3557;" parent="1" source="2hzLlLim8qnXkPnjoGoZ-3" target="2hzLlLim8qnXkPnjoGoZ-1" edge="1">
          <mxGeometry relative="1" as="geometry" />
        </mxCell>
        <mxCell id="2hzLlLim8qnXkPnjoGoZ-3" value="估值45" style="rounded=1;whiteSpace=wrap;html=1;fillColor=#A8DADC;strokeColor=#457B9D;fontColor=#1D3557;" parent="1" vertex="1">
          <mxGeometry x="70" y="260" width="170" height="80" as="geometry" />
        </mxCell>
        <mxCell id="2hzLlLim8qnXkPnjoGoZ-11" style="edgeStyle=orthogonalEdgeStyle;rounded=0;orthogonalLoop=1;jettySize=auto;html=1;entryX=1;entryY=0.5;entryDx=0;entryDy=0;labelBackgroundColor=#F1FAEE;strokeColor=#457B9D;fontColor=#1D3557;" parent="1" source="2hzLlLim8qnXkPnjoGoZ-4" target="2hzLlLim8qnXkPnjoGoZ-1" edge="1">
          <mxGeometry relative="1" as="geometry">
            <mxPoint x="540" y="330" as="targetPoint" />
          </mxGeometry>
        </mxCell>
        <mxCell id="2hzLlLim8qnXkPnjoGoZ-4" value="wind" style="rounded=1;whiteSpace=wrap;html=1;fillColor=#A8DADC;strokeColor=#457B9D;fontColor=#1D3557;" parent="1" vertex="1">
          <mxGeometry x="590" y="280" width="120" height="60" as="geometry" />
        </mxCell>
        <mxCell id="2hzLlLim8qnXkPnjoGoZ-6" value="资讯" style="text;html=1;strokeColor=none;fillColor=none;align=center;verticalAlign=middle;whiteSpace=wrap;rounded=0;labelBackgroundColor=none;fontColor=#1D3557;" parent="1" vertex="1">
          <mxGeometry x="620" y="250" width="60" height="30" as="geometry" />
        </mxCell>
        <mxCell id="2hzLlLim8qnXkPnjoGoZ-7" value="FA" style="text;html=1;strokeColor=none;fillColor=none;align=center;verticalAlign=middle;whiteSpace=wrap;rounded=0;labelBackgroundColor=none;fontColor=#1D3557;" parent="1" vertex="1">
          <mxGeometry x="125" y="230" width="60" height="30" as="geometry" />
        </mxCell>
        <mxCell id="2hzLlLim8qnXkPnjoGoZ-12" value="kettle" style="text;html=1;strokeColor=none;fillColor=none;align=center;verticalAlign=middle;whiteSpace=wrap;rounded=0;labelBackgroundColor=none;fontColor=#1D3557;" parent="1" vertex="1">
          <mxGeometry x="340" y="240" width="60" height="30" as="geometry" />
        </mxCell>
        <mxCell id="2hzLlLim8qnXkPnjoGoZ-13" value="kettle" style="text;html=1;strokeColor=none;fillColor=none;align=center;verticalAlign=middle;whiteSpace=wrap;rounded=0;labelBackgroundColor=none;fontColor=#1D3557;" parent="1" vertex="1">
          <mxGeometry x="260" y="310" width="60" height="30" as="geometry" />
        </mxCell>
        <mxCell id="2hzLlLim8qnXkPnjoGoZ-14" value="kettle" style="text;html=1;strokeColor=none;fillColor=none;align=center;verticalAlign=middle;whiteSpace=wrap;rounded=0;labelBackgroundColor=none;fontColor=#1D3557;" parent="1" vertex="1">
          <mxGeometry x="500" y="320" width="60" height="30" as="geometry" />
        </mxCell>
        <mxCell id="2hzLlLim8qnXkPnjoGoZ-15" value="核对中心" style="ellipse;whiteSpace=wrap;html=1;labelBackgroundColor=none;fillColor=#A8DADC;strokeColor=#457B9D;fontColor=#1D3557;" parent="1" vertex="1">
          <mxGeometry x="340" y="430" width="120" height="80" as="geometry" />
        </mxCell>
        <mxCell id="2hzLlLim8qnXkPnjoGoZ-25" style="edgeStyle=orthogonalEdgeStyle;rounded=0;orthogonalLoop=1;jettySize=auto;html=1;labelBackgroundColor=#F1FAEE;strokeColor=#457B9D;fontColor=#1D3557;" parent="1" source="2hzLlLim8qnXkPnjoGoZ-17" target="2hzLlLim8qnXkPnjoGoZ-15" edge="1">
          <mxGeometry relative="1" as="geometry" />
        </mxCell>
        <mxCell id="2hzLlLim8qnXkPnjoGoZ-17" value="友商信息披露系统" style="rounded=1;whiteSpace=wrap;html=1;labelBackgroundColor=none;fillColor=#A8DADC;strokeColor=#457B9D;fontColor=#1D3557;" parent="1" vertex="1">
          <mxGeometry x="80" y="440" width="120" height="60" as="geometry" />
        </mxCell>
        <mxCell id="2hzLlLim8qnXkPnjoGoZ-26" value="下载XBRL文件并上传" style="text;html=1;strokeColor=none;fillColor=none;align=center;verticalAlign=middle;whiteSpace=wrap;rounded=0;labelBackgroundColor=none;fontColor=#1D3557;" parent="1" vertex="1">
          <mxGeometry x="240" y="420" width="60" height="30" as="geometry" />
        </mxCell>
        <mxCell id="2hzLlLim8qnXkPnjoGoZ-27" value="TA" style="text;html=1;strokeColor=none;fillColor=none;align=center;verticalAlign=middle;whiteSpace=wrap;rounded=0;labelBackgroundColor=#FFFFFF;fontColor=#1D3557;" parent="1" vertex="1">
          <mxGeometry x="376" y="130" width="60" height="30" as="geometry" />
        </mxCell>
      </root>
    </mxGraphModel>
  </diagram>
</mxfile>
